# xmcd
#
# Track frame offsets:
#	150
#	8267
#	27730
#	49166
#	70889
#	91053
#	93811
#	114433
#	125089
#	145396
#	165740
#	185030
#	205791
#	206827
#	222994
#	242340
#	261704
#
# Disc length: 3599 seconds
#
# Revision: 1
# Processed by: cddbd v1.5.1PL0 Copyright (c) Steve Scherf et al.
# Submitted via: audiograbber 1.80
#
DISCID=f90e0d11
DTITLE=sanctity - itnotmtdathw
DYEAR=1900
DGENRE=
TTITLE0=the will of the incarnation
TTITLE1=in the name of the mother the daughter and the holy will 1+1=1
TTITLE2=prayer to the virgin
TTITLE3=art of love
TTITLE4=resurrect me
TTITLE5=amen
TTITLE6=the revolution is being meditated
TTITLE7=call me crazy
TTITLE8=wi'iyaye
TTITLE9=lines
TTITLE10=the ghost of you
TTITLE11=madness
TTITLE12=indigo
TTITLE13=infinity
TTITLE14=lovers
TTITLE15=namaste
TTITLE16=the will...
EXTD=
EXTT0=
EXTT1=
EXTT2=
EXTT3=
EXTT4=
EXTT5=
EXTT6=
EXTT7=
EXTT8=
EXTT9=
EXTT10=
EXTT11=
EXTT12=
EXTT13=
EXTT14=
EXTT15=
EXTT16=
PLAYORDER=
